#!OML:ASF F:\VICON\USERDATA\INSTALL\rory3\rory3.ASF
:FULLY-SPECIFIED
:DEGREES
2157
root -0.590639 16.5635 -0.202331 -12.0013 19.8262 -4.887
lowerback -2.38917 0.706585 -0.820338
upperback 4.82431 0.981134 0.495894
thorax 6.32534 0.438424 1.05297
lowerneck -8.344 -9.54611 -14.7104
upperneck 32.6873 -14.5467 11.3145
head 14.6888 -6.82271 4.85167
rclavicle -2.19781e-014 -4.77083e-015
rhumerus 67.1125 -4.76358 -33.4346
rradius 70.9359
rwrist 21.6071
rhand 12.2239 22.0774
rfingers 7.12502
rthumb 37.2325 -3.92659
lclavicle -2.19781e-014 -4.77083e-015
lhumerus 38.0515 -19.1832 46.0658
lradius 58.226
lwrist -1.37193
lhand 21.1861 24.6127
lfingers 7.12502
lthumb 45.6384 47.8563
rfemur 3.33349 -9.10358 24.4837
rtibia 33.1375
rfoot -26.2238 -14.9608
rtoes -17.7757
lfemur -7.6725 -14.424 -11.583
ltibia 40.5074
lfoot -21.0139 -14.8378
ltoes -6.05994
2158
root -0.592868 16.5711 -0.20067 -11.8545 20.178 -4.67553
lowerback -2.46867 0.723091 -0.974546
upperback 4.83398 1.00926 0.559908
thorax 6.37742 0.442627 1.20964
lowerneck -8.52078 -9.6177 -14.7925
upperneck 32.685 -14.5833 11.2412
head 14.7361 -6.84642 4.81904
rclavicle 4.88389e-014 -1.19271e-014
rhumerus 67.1035 -4.38253 -33.3336
rradius 70.809
rwrist 21.6684
rhand 11.6238 21.9057
rfingers 7.12502
rthumb 36.6648 -4.2447
lclavicle 4.88389e-014 -1.19271e-014
lhumerus 38.3742 -18.5394 45.6379
lradius 58.4427
lwrist -1.47394
lhand 21.4208 24.5569
lfingers 7.12502
lthumb 45.8563 47.711
rfemur 3.2884 -9.24434 24.2511
rtibia 33.1028
rfoot -26.2276 -15.0877
rtoes -18.0336
lfemur -7.76662 -14.5943 -11.8184
ltibia 40.3314
lfoot -20.7644 -15.1644
ltoes -5.30656
2159
root -0.592097 16.5784 -0.20067 -11.6872 20.6064 -4.45755
lowerback -2.55051 0.778134 -0.996634
upperback 4.83213 1.086 0.547578
thorax 6.42047 0.47958 1.2167
lowerneck -8.58147 -9.69549 -14.8259
upperneck 32.581 -14.6926 11.3111
head 14.7327 -6.88447 4.82696
rclavicle -6.57108e-014 3.97569e-015
rhumerus 66.8106 -3.88584 -33.3856
rradius 70.8011
rwrist 22.0783
rhand 11.5218 21.7523
rfingers 7.12502
rthumb 36.5683 -4.42257
lclavicle -6.57108e-014 3.97569e-015
lhumerus 38.8816 -18.0058 45.1594
lradius 58.6395
lwrist -1.56641
lhand 21.6623 24.484
lfingers 7.12502
lthumb 46.0804 47.545
rfemur 3.2421 -9.45251 23.9839
rtibia 33.0404
rfoot -26.2325 -15.1949
rtoes -18.5702
lfemur -7.90683 -14.8013 -12.0718
ltibia 40.1869
lfoot -20.3591 -15.6253
ltoes -3.40734
2160
root -0.59202 16.5844 -0.20225 -11.5834 21.0067 -4.42018
lowerback -2.53794 0.80807 -0.893412
upperback 4.76113 1.11609 0.613062
thorax 6.33754 0.498705 1.22825
lowerneck -8.54363 -9.73511 -14.8757
upperneck 32.4936 -14.7374 11.3308
head 14.6991 -6.90658 4.83358
rclavicle 1.96548e-014 -1.27222e-014
rhumerus 66.5543 -3.26951 -33.3137
rradius 70.7374
rwrist 22.3985
rhand 11.6895 21.7504
rfingers 7.12502
rthumb 36.727 -4.38413
lclavicle 1.96548e-014 -1.27222e-014
lhumerus 39.2701 -17.7051 44.2238
lradius 58.9723
lwrist -1.10049
lhand 21.377 24.677
lfingers 7.12502
lthumb 45.8156 47.8479
rfemur 3.21353 -9.59515 23.9341
rtibia 32.9303
rfoot -26.2499 -15.342
rtoes -17.8318
lfemur -8.07033 -14.999 -12.1275
ltibia 40.0657
lfoot -20.1879 -15.7769
ltoes -2.87712
2161
root -0.592324 16.5891 -0.203295 -11.5699 21.348 -4.56958
lowerback -2.48356 0.852284 -0.623268
upperback 4.68336 1.15204 0.750923
thorax 6.22494 0.527045 1.22101
lowerneck -8.50637 -9.77661 -14.9052
upperneck 32.3583 -14.7593 11.2811
head 14.6296 -6.92427 4.8095
rclavicle 4.80438e-014 7.15625e-015
rhumerus 66.3562 -2.698 -33.1935
rradius 70.5206
rwrist 22.735
rhand 11.8461 21.8057
rfingers 7.12502
rthumb 36.8751 -4.29092
lclavicle 4.80438e-014 7.15625e-015
lhumerus 39.69 -17.3596 43.2905
lradius 59.2434
lwrist -0.608683
lhand 20.9254 24.7499
lfingers 7.12502
lthumb 45.3962 48.0917
rfemur 3.21465 -9.74831 24.0827
rtibia 32.8006
rfoot -26.1784 -15.5318
rtoes -17.3667
lfemur -8.22125 -15.1826 -11.9817
ltibia 39.9559
lfoot -20.1599 -15.7753
ltoes -3.5285
2162
root -0.594703 16.5965 -0.203991 -11.4991 21.6962 -4.55689
lowerback -2.38566 0.948893 -0.463301
upperback 4.58994 1.26993 0.798147
thorax 6.06899 0.593216 1.18606
lowerneck -8.43593 -9.84643 -14.9298
upperneck 32.2266 -14.8592 11.3155
head 14.5775 -6.96696 4.80719
rclavicle -4.24778e-014 3.57812e-015
rhumerus 65.9621 -2.19597 -33.0638
rradius 70.3347
rwrist 23.1622
rhand 11.9522 21.9733
rfingers 7.12502
rthumb 36.9756 -4.09747
lclavicle -4.24778e-014 3.57812e-015
lhumerus 40.1638 -16.9602 42.4751
lradius 59.527
lwrist -0.263321
lhand 20.5582 24.8885
lfingers 7.12502
lthumb 45.0547 48.3665
rfemur 3.21189 -9.81188 24.0926
rtibia 32.664
rfoot -26.1152 -15.7074
rtoes -17.4404
lfemur -8.36836 -15.3309 -12.0021
ltibia 39.8153
lfoot -20.0156 -15.8653
ltoes -3.76782
2163
root -0.597542 16.6052 -0.205578 -11.3429 22.1068 -4.35808
lowerback -2.36417 1.03522 -0.583928
upperback 4.53299 1.3881 0.876893
thorax 5.98916 0.644948 1.34284
lowerneck -8.37974 -9.89388 -15.0977
upperneck 32.0753 -14.9194 11.4381
head 14.5373 -6.99893 4.87266
rclavicle 1.69091e-014 -4.37326e-015
rhumerus 65.5946 -1.68033 -32.762
rradius 70.089
rwrist 23.508
rhand 11.8128 22.0733
rfingers 7.12502
rthumb 36.8437 -4.03144
lclavicle 1.69091e-014 -4.37326e-015
lhumerus 40.6169 -16.4335 41.8473
lradius 59.8187
lwrist 0.232469
lhand 20.2734 25.1529
lfingers 7.12502
lthumb 44.7897 48.7348
rfemur 3.17543 -9.89618 23.9078
rtibia 32.5589
rfoot -26.1419 -15.8538
rtoes -17.2922
lfemur -8.50987 -15.5067 -12.2233
ltibia 39.632
lfoot -19.7701 -16.0143
ltoes -3.49307
2164
root -0.596946 16.6152 -0.206405 -11.1741 22.5677 -4.08922
lowerback -2.48831 1.06918 -0.928561
upperback 4.58778 1.44373 1.06232
thorax 6.10476 0.650602 1.73693
lowerneck -8.53912 -9.9269 -15.2791
upperneck 31.9866 -14.9211 11.5266
head 14.5617 -7.00088 4.93003
rclavicle -4.91619e-014 -9.54166e-015
rhumerus 65.5096 -1.14772 -32.3772
rradius 69.7982
rwrist 23.7774
rhand 11.8056 22.14
rfingers 7.12502
rthumb 36.8368 -3.96648
lclavicle -4.91619e-014 -9.54166e-015
lhumerus 41.0335 -15.5878 41.4843
lradius 60.0708
lwrist 0.678389
lhand 20.5784 25.3149
lfingers 7.12502
lthumb 45.0735 48.7854
rfemur 3.16119 -10.0185 23.623
rtibia 32.4929
rfoot -26.2203 -15.9761
rtoes -16.7823
lfemur -8.59939 -15.7453 -12.5469
ltibia 39.4058
lfoot -19.6299 -16.0652
ltoes -3.99463
2165
root -0.594323 16.6238 -0.208452 -10.9488 23.0439 -3.82112
lowerback -2.62758 1.10068 -1.17513
upperback 4.6107 1.4927 1.21959
thorax 6.19804 0.658019 2.04675
lowerneck -8.69594 -9.95269 -15.3984
upperneck 31.8891 -14.9239 11.6134
head 14.5747 -6.99619 4.97616
rclavicle 2.33075e-014 -2.14687e-014
rhumerus 65.4164 -0.582512 -32.0472
rradius 69.5459
rwrist 23.9036
rhand 11.9966 22.1011
rfingers 7.12502
rthumb 37.0175 -3.95881
lclavicle 2.33075e-014 -2.14687e-014
lhumerus 41.3964 -14.772 40.9554
lradius 60.3987
lwrist 1.19079
lhand 20.9595 25.3855
lfingers 7.12502
lthumb 45.4279 48.7146
rfemur 3.07603 -10.199 23.3182
rtibia 32.4573
rfoot -26.2402 -16.1338
rtoes -16.6874
lfemur -8.75473 -16.0024 -12.8508
ltibia 39.1928
lfoot -19.3796 -16.1675
ltoes -3.76528
2166
root -0.593531 16.6289 -0.211747 -10.7812 23.5858 -3.65618
lowerback -2.46795 1.18785 -0.985923
upperback 4.45264 1.60308 1.11279
thorax 5.94165 0.72802 1.83029
lowerneck -8.71808 -9.98156 -15.1576
upperneck 31.9557 -15.0146 11.6054
head 14.601 -7.00237 4.91803
rclavicle 9.62863e-016 5.96354e-015
rhumerus 64.8441 0.0296408 -32.0423
rradius 69.3687
rwrist 23.9094
rhand 12.4873 22.0486
rfingers 7.12502
rthumb 37.4815 -3.88988
lclavicle 9.62863e-016 5.96354e-015
lhumerus 41.8619 -14.4314 39.8611
lradius 60.8553
lwrist 1.88138
lhand 20.813 25.781
lfingers 7.12502
lthumb 45.2917 49.1647
rfemur 2.99338 -10.4314 23.1166
rtibia 32.439
rfoot -26.2973 -16.2732
rtoes -16.261
lfemur -8.91341 -16.3111 -13.0495
ltibia 39.0004
lfoot -19.1011 -16.3196
ltoes -3.13524
2167
root -0.595042 16.6318 -0.216419 -10.7095 24.105 -3.64111
lowerback -2.15979 1.26629 -0.5909
upperback 4.2157 1.69324 0.961412
thorax 5.5266 0.79871 1.44485
lowerneck -8.55773 -9.98583 -14.9927
upperneck 32.002 -15.1338 11.7683
head 14.6088 -7.01941 4.94766
rclavicle -5.01186e-014 -1.59028e-015
rhumerus 64.1566 0.771738 -32.2113
rradius 69.1366
rwrist 23.7924
rhand 13.0933 21.9214
rfingers 7.12502
rthumb 38.0539 -3.86317
lclavicle -5.01186e-014 -1.59028e-015
lhumerus 42.2984 -14.0917 38.6229
lradius 61.2589
lwrist 2.41225
lhand 20.6673 25.9993
lfingers 7.12502
lthumb 45.1562 49.4371
rfemur 2.93438 -10.6084 23.1028
rtibia 32.4324
rfoot -26.3543 -16.4864
rtoes -15.9596
lfemur -9.08266 -16.5618 -13.076
ltibia 38.8361
lfoot -18.933 -16.5308
ltoes -2.84386
